<svg t="1722356288136" class="icon" viewBox="0 0 1024 1024" version="1.1" xmlns="http://www.w3.org/2000/svg" p-id="6399" width="64" height="64"><path d="M441.5609363 603.7382637c-17.12431408-59.34648889-18.15589925-122.18823111-2.9733926-181.71676445 14.72132741-57.75663408 44.2368-111.0956563 85.35457185-154.26446222a345.47787852 345.47787852 0 0 1 66.45835853-54.27351703c-41.77313185-19.57584592-88.38864592-30.53492148-137.56491853-30.53492148-179.27736889 0-324.60951703 145.33214815-324.60951703 324.60951703s145.33214815 324.60951703 324.60951703 324.60951704c49.26122667 0 95.93742222-10.99548445 137.75909927-30.63201184a348.05198697 348.05198697 0 0 1-54.7468326-42.42849186c-44.5523437-42.29499259-77.16257185-96.0223763-94.28688592-155.36886519zM460.17801482 986.18936889l-39.75850667-80.87627852h77.38102518zM90.27584 817.88321185l37.0157037-82.16272593 49.29763555 59.6498963zM-12.6035437 506.95130075L68.81886815 468.30933333l-1.08013037 77.38102519zM90.66420148 200.09718518l87.01724444 23.43518815-51.03312592 58.16926815zM459.37701925 38.87862518l39.87986964 80.81559704-77.38102519 0.10922667z" p-id="6400"></path><path d="M820.28619852 738.59678815c-64.2131437-42.71976297-114.20254815-107.53972148-137.26151111-187.4572326s-16.65099852-161.40060445 14.92764444-231.76685037c27.73143703-61.78588445 53.54533925-103.57115259 110.0762074-151.0240711-28.95720297 0.54613333-58.3149037 4.83024592-87.4662874 13.24069925-59.61348741 17.19713185-110.82865778 49.40686222-150.7449363 91.31349334-80.08741925 84.08026075-114.66372741 207.23939555-80.16023703 326.85473185S619.04213333 805.18864592 731.61841778 833.67253333c56.10609778 14.19946667 116.59339852 14.17519408 176.20688592-3.02193778 29.1513837-8.41045333 56.27600592-20.42538667 81.07045927-35.38944-79.17719703-7.16041482-112.22433185-19.13893925-168.60956445-56.6643674zM945.64200297 153.93071408l14.0781037 38.50846814 39.69782518 10.23089778-32.27041185 25.29204148 2.53648592 40.91145482-34.01803851-22.87691852-38.13224296 15.0490074 11.23821037-39.41869036-26.09303704-31.61505185 40.9721363-1.48062815z" p-id="6401"></path><path d="M813.34423703 355.00487111l11.35957334 31.05678222 32.02768593 8.26481778-26.03235555 20.40111407 2.03889777 33.01072593-27.44016593-18.45930666-30.76551111 12.14843258 9.06581334-31.80923258-21.05647407-25.51049482 33.0592711-1.20149333zM983.94415408 451.63406222l14.49073777 39.64928 40.86290963 10.53430519-33.22917926 26.03235556 2.6093037 42.12508444-35.01321481-23.55655111-39.26091852 15.49805037 11.57802666-40.58377482-26.86976-32.54954667 42.17362964-1.52917333z" p-id="6402"></path></svg>