<?xml version="1.0" standalone="no"?><!DOCTYPE svg PUBLIC "-//W3C//DTD SVG 1.1//EN" "http://www.w3.org/Graphics/SVG/1.1/DTD/svg11.dtd"><svg t="1722357516083" class="icon" viewBox="0 0 1149 1024" version="1.1" xmlns="http://www.w3.org/2000/svg" p-id="9213" xmlns:xlink="http://www.w3.org/1999/xlink" width="71.8125" height="64"><path d="M1061.585878 1024H88.369851A88.369851 88.369851 0 0 1 0 935.630149V88.369851A88.369851 88.369851 0 0 1 88.369851 0H1061.585878a88.369851 88.369851 0 0 1 88.369852 88.369851v847.260298A88.369851 88.369851 0 0 1 1061.585878 1024zM88.369851 57.38302A30.986831 30.986831 0 0 0 57.38302 88.369851v847.260298a30.986831 30.986831 0 0 0 30.986831 30.986831H1061.585878a30.986831 30.986831 0 0 0 30.986831-30.986831V88.369851A30.986831 30.986831 0 0 0 1061.585878 57.38302z" fill="#231815" p-id="9214"></path><path d="M28.69151 333.682264h1091.711964v57.38302H28.69151zM28.69151 655.027178h1091.711964v57.383021H28.69151z" fill="#231815" p-id="9215"></path><path d="M104.437097 168.70608m28.69151 0l82.63155 0q28.69151 0 28.69151 28.69151l0 0q0 28.69151-28.69151 28.691511l-82.63155 0q-28.69151 0-28.69151-28.691511l0 0q0-28.69151 28.69151-28.69151Z" fill="#231815" p-id="9216"></path><path d="M104.437097 494.354721m28.69151 0l82.63155 0q28.69151 0 28.69151 28.69151l0 0q0 28.69151-28.69151 28.691511l-82.63155 0q-28.69151 0-28.69151-28.691511l0 0q0-28.69151 28.69151-28.69151Z" fill="#231815" p-id="9217"></path><path d="M104.437097 815.986551m28.69151 0l82.63155 0q28.69151 0 28.69151 28.69151l0 0q0 28.69151-28.69151 28.69151l-82.63155 0q-28.69151 0-28.69151-28.69151l0 0q0-28.69151 28.69151-28.69151Z" fill="#231815" p-id="9218"></path></svg>